<svg width="36" height="40" viewBox="0 0 36 40" fill="none" xmlns="http://www.w3.org/2000/svg">
<path d="M19.8631 3.4809C22.7645 0.0168877 26.7982 0 26.7982 0C26.7982 0 27.3982 3.25676 24.5158 6.39405C21.4381 9.74399 17.9398 9.19583 17.9398 9.19583C17.9398 9.19583 17.2829 6.56122 19.8631 3.4809ZM18.3089 11.4772C19.8015 11.4772 22.5718 9.61861 26.1777 9.61861C32.3847 9.61861 34.8265 13.6193 34.8265 13.6193C34.8265 13.6193 30.0507 15.831 30.0507 21.1978C30.0507 27.2519 36 29.3384 36 29.3384C36 29.3384 31.8412 39.9413 26.2239 39.9413C23.6439 39.9413 21.6381 38.3664 18.9197 38.3664C16.1494 38.3664 13.4003 40 11.6098 40C6.4803 40.0001 0 29.9422 0 21.8572C0 13.9028 5.48515 9.73006 10.63 9.73006C13.9746 9.73006 16.5701 11.4772 18.3089 11.4772Z" fill="#999999"/>
</svg>
