<svg width="280" height="41" viewBox="0 0 280 41" fill="none" xmlns="http://www.w3.org/2000/svg">
<path d="M0.09375 17.0781C0.09375 14.1224 0.529948 11.4922 1.40234 9.1875C2.28776 6.86979 3.66797 5.04036 5.54297 3.69922C7.41797 2.35807 9.78776 1.6875 12.6523 1.6875C14.6055 1.6875 16.6693 1.94141 18.8438 2.44922C19.5469 2.86589 20.1589 3.30208 20.6797 3.75781C21.2135 4.20052 21.7214 4.74089 22.2031 5.37891C22.2031 6.30339 22.0794 7.53385 21.832 9.07031C21.5846 10.5938 21.2721 12.0195 20.8945 13.3477C20.5299 14.6628 20.1784 15.5156 19.8398 15.9062C19.5013 16.0755 19.2148 16.1927 18.9805 16.2578C18.7461 16.3099 18.3815 16.3359 17.8867 16.3359C17.2747 16.3359 16.7018 16.2904 16.168 16.1992C15.6341 16.1081 15.2305 15.9844 14.957 15.8281L14.2734 9.24609C13.349 8.98568 12.0664 8.85547 10.4258 8.85547C9.98307 8.85547 9.65755 8.86198 9.44922 8.875C8.88932 10.6719 8.57682 13.0872 8.51172 16.1211C8.4987 16.4857 8.49219 17.0391 8.49219 17.7812C8.49219 19.526 8.58333 20.9388 8.76562 22.0195C8.9349 23.0352 9.11719 23.7969 9.3125 24.3047C9.50781 24.8125 9.84635 25.2031 10.3281 25.4766C10.8229 25.75 11.5586 25.8867 12.5352 25.8867C13.8503 25.8867 15.0612 25.6979 16.168 25.3203C17.2878 24.9297 18.5052 24.3633 19.8203 23.6211C20.3151 24.1549 20.6927 24.5911 20.9531 24.9297C21.2266 25.2682 21.474 25.6849 21.6953 26.1797C21.9297 26.6745 22.0859 27.2409 22.1641 27.8789C21.9557 28.3086 21.4023 28.8815 20.5039 29.5977C19.6055 30.3138 18.4271 30.9583 16.9688 31.5312C15.5104 32.1042 13.8763 32.3906 12.0664 32.3906C7.83464 32.3906 4.78125 31.069 2.90625 28.4258C1.03125 25.7826 0.09375 22 0.09375 17.0781ZM23.6289 6.45312C23.4336 5.65885 23.3034 5.0013 23.2383 4.48047C23.1732 3.94661 23.1471 3.33464 23.1602 2.64453C23.4336 2.29297 23.8568 1.94141 24.4297 1.58984C25.0156 1.22526 25.6927 0.919271 26.4609 0.671875C27.2422 0.424479 28.0495 0.300781 28.8828 0.300781C30.5104 0.300781 31.7604 0.710938 32.6328 1.53125C33.5052 2.35156 33.9414 3.5625 33.9414 5.16406C33.9414 6.3099 33.8438 8.15234 33.6484 10.6914C33.4531 13.2305 33.1732 15.9323 32.8086 18.7969C32.444 21.6484 32.0273 24.1419 31.5586 26.2773L31.5977 26.3164L34.4883 25.1055C35.5039 25.9779 36.0964 27.1367 36.2656 28.582C36.2656 28.6732 35.9727 29.0508 35.3867 29.7148C34.8008 30.3659 34.026 30.9779 33.0625 31.5508C32.112 32.1107 31.0182 32.3906 29.7812 32.3906C28.4922 32.3906 27.444 32.0326 26.6367 31.3164C25.8424 30.6003 25.4648 29.3763 25.5039 27.6445L25.543 24.1289C25.556 20.7956 25.5885 17.7943 25.6406 15.125C25.7057 12.4557 25.8359 9.70182 26.0312 6.86328L23.6289 6.45312ZM38.7461 3.97266C38.7461 2.82682 39.1172 1.89583 39.8594 1.17969C40.6146 0.463542 41.8125 0.105469 43.4531 0.105469C45.0938 0.105469 46.2852 0.463542 47.0273 1.17969C47.7826 1.89583 48.1602 2.82682 48.1602 3.97266C48.1602 4.6237 47.9323 5.22266 47.4766 5.76953C47.0339 6.31641 46.4479 6.7526 45.7188 7.07812C44.9896 7.39062 44.2344 7.54688 43.4531 7.54688C42.6068 7.54688 41.819 7.36458 41.0898 7C40.3737 6.6224 39.8008 6.15365 39.3711 5.59375C38.9544 5.03385 38.7461 4.49349 38.7461 3.97266ZM37.7891 15.1445C37.6198 14.5065 37.5026 13.9271 37.4375 13.4062C37.3724 12.8724 37.3398 12.319 37.3398 11.7461L37.3594 11.1992C37.6328 10.8477 38.056 10.4961 38.6289 10.1445C39.2148 9.77995 39.8919 9.47396 40.6602 9.22656C41.4414 8.97917 42.2487 8.85547 43.082 8.85547C44.9049 8.85547 46.2005 9.26562 46.9688 10.0859C47.737 10.9062 48.1211 12.1823 48.1211 13.9141C48.1211 14.9557 47.9714 16.3164 47.6719 17.9961C47.3854 19.6758 47.0339 21.3099 46.6172 22.8984C46.2135 24.474 45.862 25.6003 45.5625 26.2773L45.6016 26.3164L48.4922 25.2617C49.013 25.7044 49.4036 26.1927 49.6641 26.7266C49.9375 27.2604 50.1133 27.8789 50.1914 28.582C50.1914 28.6732 49.9049 29.0508 49.332 29.7148C48.7591 30.3659 47.9974 30.9779 47.0469 31.5508C46.1094 32.1107 45.0221 32.3906 43.7852 32.3906C42.5352 32.3906 41.5195 32.0521 40.7383 31.375C39.9701 30.6979 39.5859 29.5391 39.5859 27.8984C39.5859 25.9844 39.638 23.9531 39.7422 21.8047C39.8464 19.6562 40.0091 17.5729 40.2305 15.5547L37.7891 15.1445ZM51.4805 15.2422C51.207 14.3958 51.0247 13.6406 50.9336 12.9766C50.8555 12.3125 50.8164 11.4531 50.8164 10.3984C51.0247 10.2161 51.3633 10.0078 51.832 9.77344C52.3008 9.52604 52.8607 9.3112 53.5117 9.12891C54.1628 8.94661 54.8333 8.85547 55.5234 8.85547C57.099 8.85547 58.2122 9.19401 58.8633 9.87109C59.5273 10.5482 59.8594 11.5638 59.8594 12.918C59.8594 13.6732 59.7487 14.6953 59.5273 15.9844C59.1628 18.0547 58.9805 19.1419 58.9805 19.2461C58.9805 19.3112 59.026 19.3763 59.1172 19.4414C59.2083 19.4935 59.306 19.5195 59.4102 19.5195C59.5273 19.5195 59.6055 19.474 59.6445 19.3828L59.8398 18.6016L60.2695 16.9414C60.9076 14.5326 61.8581 12.5859 63.1211 11.1016C64.3841 9.60417 65.9727 8.85547 67.8867 8.85547C69.319 8.85547 70.4844 9.16797 71.3828 9.79297C72.2943 10.4049 72.9518 11.2188 73.3555 12.2344C73.7591 13.237 73.9609 14.3438 73.9609 15.5547C73.9609 17.1953 73.8047 19.0378 73.4922 21.082C73.1797 23.1133 72.763 25.0143 72.2422 26.7852C71.7344 28.5169 70.888 29.8906 69.7031 30.9062C68.5312 31.9089 67.0664 32.4102 65.3086 32.4102C64.6706 32.4102 63.9219 32.306 63.0625 32.0977C62.2161 31.9023 61.1419 31.5573 59.8398 31.0625L59.0586 34.7539L59.0977 34.793L62.8281 34.5391C63.0755 34.8906 63.2578 35.3138 63.375 35.8086C63.5052 36.3164 63.6159 36.8958 63.707 37.5469L63.7656 37.9375C63.7656 37.9896 63.4792 38.2305 62.9062 38.6602C62.3333 39.1029 61.5716 39.5065 60.6211 39.8711C59.6706 40.2487 58.5768 40.4375 57.3398 40.4375C54.5404 40.4375 53.1406 38.9466 53.1406 35.9648V34.6172C53.1406 30.6458 53.1667 27.1107 53.2188 24.0117C53.2839 20.8997 53.4141 18.0938 53.6094 15.5938L51.4805 15.2422ZM65.2305 27.1953C65.6992 25.4375 65.9336 22.7747 65.9336 19.207C65.9336 18.5951 65.901 18.1003 65.8359 17.7227C65.5365 17.3451 65.1068 17.1562 64.5469 17.1562C64.3646 17.3125 63.7396 18.3411 62.6719 20.2422C61.6042 22.1302 60.8164 23.582 60.3086 24.5977V25.5352C61.0247 26.0299 61.8516 26.4401 62.7891 26.7656C63.7266 27.0781 64.4427 27.2344 64.9375 27.2344C65.0547 27.2344 65.1523 27.2214 65.2305 27.1953ZM78.1211 25.1055C79.2669 25.5612 80.1849 25.9128 80.875 26.1602C81.5651 26.4076 82.3203 26.6224 83.1406 26.8047C83.974 26.987 84.8008 27.0781 85.6211 27.0781C85.9857 27.0781 86.2461 27.0456 86.4023 26.9805C86.4414 26.9284 86.474 26.8503 86.5 26.7461C86.5391 26.6289 86.5586 26.5117 86.5586 26.3945C86.5586 26.1341 86.4089 25.9193 86.1094 25.75C85.6406 25.4896 84.8073 25.0794 83.6094 24.5195C81.9688 23.7383 80.6667 23.0417 79.7031 22.4297C78.7526 21.8177 77.9453 21.0039 77.2812 19.9883C76.6302 18.9727 76.3047 17.6966 76.3047 16.1602C76.3047 13.9596 76.9622 12.1953 78.2773 10.8672C79.5924 9.52604 81.6758 8.85547 84.5273 8.85547C87.9258 8.85547 90.569 9.29818 92.457 10.1836C92.5482 10.5612 92.5938 11.0365 92.5938 11.6094C92.5938 12.7031 92.4245 13.8229 92.0859 14.9688C91.7474 16.1016 91.3047 16.9414 90.7578 17.4883C90.0156 17.2409 88.9674 16.8438 87.6133 16.2969C86.6237 15.9062 85.8359 15.6068 85.25 15.3984C84.6771 15.1771 84.1497 15.0208 83.668 14.9297C83.4076 14.9948 83.1992 15.151 83.043 15.3984C82.8867 15.6328 82.8086 15.9128 82.8086 16.2383C82.8086 16.5247 82.8932 16.7656 83.0625 16.9609C83.2318 17.1562 83.4206 17.3125 83.6289 17.4297C83.8503 17.5339 84.1628 17.6771 84.5664 17.8594C84.7747 17.9505 84.9701 18.0352 85.1523 18.1133C85.3346 18.1784 85.5039 18.2435 85.6602 18.3086C86.6758 18.7383 87.4766 19.0898 88.0625 19.3633C88.6484 19.6367 89.2148 19.9622 89.7617 20.3398C90.7643 21.0299 91.5521 21.8177 92.125 22.7031C92.6979 23.5885 92.9844 24.5586 92.9844 25.6133C92.9844 27.0716 92.5677 28.3346 91.7344 29.4023C90.9141 30.457 89.8594 31.2253 88.5703 31.707C87.8932 31.9544 87.151 32.1302 86.3438 32.2344C85.5495 32.3516 84.6185 32.4102 83.5508 32.4102C82.2878 32.4102 80.9857 32.1693 79.6445 31.6875C78.3164 31.1927 77.3008 30.3724 76.5977 29.2266C76.6107 28.4323 76.7148 27.7422 76.9102 27.1562C77.1185 26.5573 77.5221 25.8737 78.1211 25.1055ZM101.441 19.1289C102.21 19.1289 103.056 19.207 103.98 19.3633C104.918 19.5195 105.777 19.7083 106.559 19.9297V19.3242C106.559 18.9206 106.546 18.4714 106.52 17.9766C106.507 17.4818 106.48 17.1562 106.441 17C106.324 16.7786 105.986 16.5508 105.426 16.3164C104.879 16.082 103.98 15.9648 102.73 15.9648C101.962 15.9648 101.168 16.0625 100.348 16.2578C99.5404 16.4401 98.6419 16.6875 97.6523 17C97.1185 16.1146 96.6888 15.2747 96.3633 14.4805C96.0508 13.6732 95.8945 12.8659 95.8945 12.0586C95.8945 11.8112 95.9141 11.5638 95.9531 11.3164C98.0625 9.67578 100.79 8.85547 104.137 8.85547C105.986 8.85547 107.626 9.0638 109.059 9.48047C110.491 9.89714 111.669 10.7044 112.594 11.9023C113.518 13.1003 113.98 14.7995 113.98 17C113.98 19.1484 113.727 21.2318 113.219 23.25C112.724 25.2552 112.47 26.2773 112.457 26.3164L115.289 25.1055C115.667 25.5091 115.999 26.0039 116.285 26.5898C116.585 27.1628 116.773 27.8268 116.852 28.582C116.669 28.9727 116.272 29.474 115.66 30.0859C115.048 30.6849 114.299 31.2188 113.414 31.6875C112.529 32.1562 111.604 32.3906 110.641 32.3906C109.56 32.3906 108.74 32.0716 108.18 31.4336C107.633 30.7956 107.359 29.9688 107.359 28.9531C107.359 28.3802 107.444 27.8008 107.613 27.2148L107.027 27.0391C106.663 29.0964 105.888 30.5026 104.703 31.2578C103.518 32.013 102.21 32.3906 100.777 32.3906C99.8398 32.3906 98.9349 32.1302 98.0625 31.6094C97.1901 31.0755 96.4805 30.3073 95.9336 29.3047C95.3867 28.2891 95.1133 27.1042 95.1133 25.75C95.1133 23.5885 95.6536 21.9479 96.7344 20.8281C97.8151 19.6953 99.3841 19.1289 101.441 19.1289ZM103.668 26.5703C103.993 26.5052 104.378 26.3229 104.82 26.0234C105.276 25.724 105.68 25.3659 106.031 24.9492C106.383 24.5326 106.591 24.1354 106.656 23.7578L106.539 23.2891C105.849 23.1979 105.113 23.1523 104.332 23.1523C103.668 23.1523 103.212 23.2044 102.965 23.3086C102.548 23.7773 102.34 24.2982 102.34 24.8711C102.34 25.2878 102.444 25.6654 102.652 26.0039C102.874 26.3424 103.212 26.5312 103.668 26.5703ZM119.684 25.2031C119.684 23.0807 119.71 21.4792 119.762 20.3984C119.814 19.3047 119.951 17.7031 120.172 15.5938L117.906 15.3008C117.633 14.4544 117.451 13.6992 117.359 13.0352C117.281 12.3711 117.242 11.5117 117.242 10.457C117.451 10.2747 117.796 10.0599 118.277 9.8125C118.772 9.55208 119.358 9.33073 120.035 9.14844C120.712 8.95312 121.396 8.85547 122.086 8.85547C123.661 8.85547 124.775 9.19401 125.426 9.87109C126.09 10.5482 126.422 11.5638 126.422 12.918C126.422 13.6732 126.311 14.6953 126.09 15.9844C125.725 18.0547 125.543 19.1419 125.543 19.2461C125.543 19.3112 125.589 19.3763 125.68 19.4414C125.771 19.4935 125.868 19.5195 125.973 19.5195C126.09 19.5195 126.168 19.474 126.207 19.3828C126.728 17.3125 127.249 15.5807 127.77 14.1875C128.29 12.7943 129.078 11.5573 130.133 10.4766C131.188 9.39583 132.555 8.85547 134.234 8.85547C136.318 8.85547 137.815 9.49349 138.727 10.7695C139.638 12.0326 140.094 13.6276 140.094 15.5547C140.094 17.2734 139.892 18.9336 139.488 20.5352C139.085 22.1237 138.583 23.7839 137.984 25.5156C138.01 25.4505 137.919 25.7044 137.711 26.2773L137.75 26.3164L140.602 25.1445C141.617 26.0169 142.21 27.1758 142.379 28.6211C142.379 28.7122 142.086 29.0833 141.5 29.7344C140.927 30.3854 140.165 30.9909 139.215 31.5508C138.264 32.1107 137.171 32.3906 135.934 32.3906C134.697 32.3906 133.688 32.0586 132.906 31.3945C132.125 30.7305 131.734 29.5977 131.734 27.9961C131.734 26.7201 131.786 25.0143 131.891 22.8789C131.995 20.7435 132.099 19.0247 132.203 17.7227C131.865 17.3581 131.448 17.1628 130.953 17.1367C130.497 17.7227 129.827 18.8945 128.941 20.6523C128.056 22.4102 127.431 23.7253 127.066 24.5977C127.04 24.7799 127.027 24.9557 127.027 25.125C127.027 25.776 127.125 26.6549 127.32 27.7617C127.516 28.8555 127.757 29.8776 128.043 30.8281C127.809 31.2708 127.327 31.6419 126.598 31.9414C125.868 32.2409 124.97 32.3906 123.902 32.3906C122.939 32.3906 122.164 32.3125 121.578 32.1562C121.005 32 120.602 31.8372 120.367 31.668C120.133 31.4857 120.016 31.375 120.016 31.3359C120.003 31.2188 119.97 30.9128 119.918 30.418C119.866 29.9102 119.814 29.207 119.762 28.3086C119.71 27.3971 119.684 26.362 119.684 25.2031ZM143.961 20.7305C143.961 18.7513 144.234 16.8568 144.781 15.0469C145.341 13.237 146.214 11.7526 147.398 10.5938C148.596 9.4349 150.1 8.85547 151.91 8.85547C153.941 8.85547 155.882 9.5 157.73 10.7891L158.043 10.5938C158.004 9.07031 157.815 7.6901 157.477 6.45312L153.512 6.19922C153.329 5.96484 153.186 5.61979 153.082 5.16406C152.978 4.69531 152.926 4.21354 152.926 3.71875C152.926 3.05469 153.004 2.48177 153.16 2C153.941 1.4401 154.944 1.01693 156.168 0.730469C157.392 0.44401 158.616 0.300781 159.84 0.300781C161.194 0.300781 162.216 0.58724 162.906 1.16016C163.596 1.72005 164.059 2.57292 164.293 3.71875C164.54 4.85156 164.664 6.42708 164.664 8.44531C164.664 11.1016 164.553 14.1159 164.332 17.4883C164.111 20.8607 163.824 23.6146 163.473 25.75L163.395 26.082L165.66 25.1055C166.038 25.5091 166.37 26.0039 166.656 26.5898C166.956 27.1628 167.145 27.8268 167.223 28.582C167.04 28.9727 166.643 29.474 166.031 30.0859C165.419 30.6849 164.671 31.2188 163.785 31.6875C162.9 32.1562 161.975 32.3906 161.012 32.3906C159.931 32.3906 159.098 32.0716 158.512 31.4336C157.939 30.7826 157.652 29.9557 157.652 28.9531C157.652 28.6927 157.717 28.1589 157.848 27.3516C157.991 26.5443 158.108 25.9844 158.199 25.6719L157.613 25.4961C156.949 27.8268 156.07 29.5586 154.977 30.6914C153.883 31.8242 152.529 32.3906 150.914 32.3906C149.182 32.3906 147.796 31.8177 146.754 30.6719C145.725 29.513 145.003 28.0612 144.586 26.3164C144.169 24.5716 143.961 22.7096 143.961 20.7305ZM157.359 20.3789C157.438 19.9102 157.477 19.3633 157.477 18.7383C157.477 18.3346 157.457 17.9505 157.418 17.5859C157.392 17.2214 157.359 16.9609 157.32 16.8047C156.799 16.4271 156.207 16.1602 155.543 16.0039C154.892 15.8477 154.293 15.7695 153.746 15.7695C153.408 15.7695 153.043 15.8021 152.652 15.8672C152.392 16.1276 152.184 16.694 152.027 17.5664C151.871 18.4258 151.793 19.3958 151.793 20.4766C151.793 21.6354 151.871 22.7617 152.027 23.8555C152.197 24.9362 152.431 25.7826 152.73 26.3945C152.939 26.3945 153.342 26.0755 153.941 25.4375C154.553 24.7865 155.185 23.9922 155.836 23.0547C156.487 22.1042 156.995 21.2122 157.359 20.3789ZM170.426 25.1055C171.572 25.5612 172.49 25.9128 173.18 26.1602C173.87 26.4076 174.625 26.6224 175.445 26.8047C176.279 26.987 177.105 27.0781 177.926 27.0781C178.29 27.0781 178.551 27.0456 178.707 26.9805C178.746 26.9284 178.779 26.8503 178.805 26.7461C178.844 26.6289 178.863 26.5117 178.863 26.3945C178.863 26.1341 178.714 25.9193 178.414 25.75C177.945 25.4896 177.112 25.0794 175.914 24.5195C174.273 23.7383 172.971 23.0417 172.008 22.4297C171.057 21.8177 170.25 21.0039 169.586 19.9883C168.935 18.9727 168.609 17.6966 168.609 16.1602C168.609 13.9596 169.267 12.1953 170.582 10.8672C171.897 9.52604 173.98 8.85547 176.832 8.85547C180.23 8.85547 182.874 9.29818 184.762 10.1836C184.853 10.5612 184.898 11.0365 184.898 11.6094C184.898 12.7031 184.729 13.8229 184.391 14.9688C184.052 16.1016 183.609 16.9414 183.062 17.4883C182.32 17.2409 181.272 16.8438 179.918 16.2969C178.928 15.9062 178.141 15.6068 177.555 15.3984C176.982 15.1771 176.454 15.0208 175.973 14.9297C175.712 14.9948 175.504 15.151 175.348 15.3984C175.191 15.6328 175.113 15.9128 175.113 16.2383C175.113 16.5247 175.198 16.7656 175.367 16.9609C175.536 17.1562 175.725 17.3125 175.934 17.4297C176.155 17.5339 176.467 17.6771 176.871 17.8594C177.079 17.9505 177.275 18.0352 177.457 18.1133C177.639 18.1784 177.809 18.2435 177.965 18.3086C178.98 18.7383 179.781 19.0898 180.367 19.3633C180.953 19.6367 181.52 19.9622 182.066 20.3398C183.069 21.0299 183.857 21.8177 184.43 22.7031C185.003 23.5885 185.289 24.5586 185.289 25.6133C185.289 27.0716 184.872 28.3346 184.039 29.4023C183.219 30.457 182.164 31.2253 180.875 31.707C180.198 31.9544 179.456 32.1302 178.648 32.2344C177.854 32.3516 176.923 32.4102 175.855 32.4102C174.592 32.4102 173.29 32.1693 171.949 31.6875C170.621 31.1927 169.605 30.3724 168.902 29.2266C168.915 28.4323 169.02 27.7422 169.215 27.1562C169.423 26.5573 169.827 25.8737 170.426 25.1055ZM189.059 21.2188C189.059 19.0964 189.091 17.1628 189.156 15.418L187.027 15.0469C186.858 14.3958 186.741 13.8229 186.676 13.3281C186.611 12.8333 186.578 12.306 186.578 11.7461L186.617 11.3555C186.656 11.1732 186.676 11.0234 186.676 10.9062L189.508 10.2812C189.573 9.47396 189.723 8.5625 189.957 7.54688C190.191 6.53125 190.439 5.78255 190.699 5.30078C191.116 4.98828 191.617 4.75391 192.203 4.59766C192.789 4.44141 193.421 4.36328 194.098 4.36328C194.671 4.36328 195.224 4.42188 195.758 4.53906C196.305 4.64323 196.78 4.78646 197.184 4.96875C197.223 5.41146 197.242 5.91927 197.242 6.49219C197.242 7.42969 197.197 8.49089 197.105 9.67578L200.543 9.05078C201.025 9.88411 201.266 10.7891 201.266 11.7656C201.266 12.4427 201.181 13.0547 201.012 13.6016C200.855 14.1484 200.634 14.7669 200.348 15.457C199.488 15.6003 198.31 15.6914 196.812 15.7305C196.63 17.8529 196.227 20.9714 195.602 25.0859L195.504 25.75L195.543 25.7891L200.133 24.3633C201.083 25.1576 201.663 26.3815 201.871 28.0352C201.871 28.1263 201.448 28.556 200.602 29.3242C199.768 30.0794 198.72 30.7826 197.457 31.4336C196.194 32.0716 194.82 32.3906 193.336 32.3906C190.745 32.3906 189.365 30.8086 189.195 27.6445C189.104 26.043 189.059 23.901 189.059 21.2188ZM210.133 29.5586C209.885 28.5951 209.423 27.2018 208.746 25.3789C208.069 23.543 207.359 21.7786 206.617 20.0859C205.875 18.3932 205.289 17.2279 204.859 16.5898L203.062 16.2773C202.88 15.7695 202.737 15.2096 202.633 14.5977C202.542 13.9727 202.464 13.25 202.398 12.4297C202.62 11.8177 202.958 11.2383 203.414 10.6914C203.87 10.1445 204.417 9.70182 205.055 9.36328C205.706 9.02474 206.409 8.85547 207.164 8.85547C208.401 8.85547 209.423 9.20703 210.23 9.91016C211.051 10.6003 211.682 11.4727 212.125 12.5273C212.581 13.569 212.978 14.7995 213.316 16.2188C214.007 18.9661 214.449 22.3711 214.645 26.4336L215.074 26.3555C215.582 25.2227 216.012 23.6016 216.363 21.4922C216.728 19.3828 216.923 17.3581 216.949 15.418L214.508 15.0469C214.221 13.9531 214.078 12.6706 214.078 11.1992C214.365 10.8477 214.775 10.4961 215.309 10.1445C215.855 9.77995 216.5 9.47396 217.242 9.22656C217.984 8.97917 218.772 8.85547 219.605 8.85547C222.965 8.85547 224.645 10.5417 224.645 13.9141C224.645 16.5703 224.163 19.1484 223.199 21.6484C222.249 24.1484 220.816 26.4076 218.902 28.4258C216.988 30.444 214.658 32.0326 211.91 33.1914L212.066 33.8359C212.418 33.875 212.763 33.8945 213.102 33.8945C214.208 33.8945 215.543 33.7122 217.105 33.3477C217.991 34.3372 218.434 35.418 218.434 36.5898C218.434 36.9414 218.395 37.2995 218.316 37.6641C217.535 38.4193 216.559 39.0703 215.387 39.6172C214.215 40.1641 212.926 40.4375 211.52 40.4375C209.475 40.4375 207.822 39.9753 206.559 39.0508C205.296 38.1263 204.664 36.7201 204.664 34.832C204.664 33.9857 204.918 33.2435 205.426 32.6055C205.947 31.9805 206.546 31.4727 207.223 31.082C207.913 30.6784 208.883 30.1706 210.133 29.5586ZM226.246 6.45312C226.051 5.65885 225.921 5.0013 225.855 4.48047C225.79 3.94661 225.764 3.33464 225.777 2.64453C226.051 2.29297 226.474 1.94141 227.047 1.58984C227.633 1.22526 228.31 0.919271 229.078 0.671875C229.859 0.424479 230.667 0.300781 231.5 0.300781C233.128 0.300781 234.378 0.710938 235.25 1.53125C236.122 2.35156 236.559 3.5625 236.559 5.16406C236.559 6.3099 236.461 8.15234 236.266 10.6914C236.07 13.2305 235.79 15.9323 235.426 18.7969C235.061 21.6484 234.645 24.1419 234.176 26.2773L234.215 26.3164L237.105 25.1055C238.121 25.9779 238.714 27.1367 238.883 28.582C238.883 28.6732 238.59 29.0508 238.004 29.7148C237.418 30.3659 236.643 30.9779 235.68 31.5508C234.729 32.1107 233.635 32.3906 232.398 32.3906C231.109 32.3906 230.061 32.0326 229.254 31.3164C228.46 30.6003 228.082 29.3763 228.121 27.6445L228.16 24.1289C228.173 20.7956 228.206 17.7943 228.258 15.125C228.323 12.4557 228.453 9.70182 228.648 6.86328L226.246 6.45312ZM240.465 20.6523C240.465 18.3997 240.842 16.388 241.598 14.6172C242.353 12.8464 243.518 11.4466 245.094 10.418C246.682 9.3763 248.661 8.85547 251.031 8.85547C252.268 8.85547 253.505 9.00521 254.742 9.30469C255.979 9.59115 257.027 10.0729 257.887 10.75C258.681 11.388 259.254 12.2344 259.605 13.2891C259.97 14.3307 260.152 15.4896 260.152 16.7656C260.152 17.612 260.081 18.4779 259.938 19.3633C259.781 19.6237 259.475 19.9688 259.02 20.3984C258.564 20.8151 258.03 21.2253 257.418 21.6289C256.806 22.0326 256.214 22.3451 255.641 22.5664C255.094 22.6055 254.527 22.625 253.941 22.625C252.913 22.625 251.871 22.5794 250.816 22.4883C249.762 22.3971 248.837 22.293 248.043 22.1758C248.147 23.2826 248.486 24.2461 249.059 25.0664C249.632 25.8867 250.543 26.2969 251.793 26.2969C251.91 26.2969 252.099 26.2839 252.359 26.2578C253.154 26.1797 254.078 25.9714 255.133 25.6328C256.201 25.2812 257.262 24.8776 258.316 24.4219C258.811 24.9167 259.176 25.4115 259.41 25.9062C259.645 26.401 259.807 27.1107 259.898 28.0352C259.495 28.5039 258.837 29.0768 257.926 29.7539C257.027 30.431 255.927 31.043 254.625 31.5898C253.323 32.1237 251.962 32.3906 250.543 32.3906C248.408 32.3906 246.578 31.8763 245.055 30.8477C243.544 29.806 242.398 28.3997 241.617 26.6289C240.849 24.8451 240.465 22.8529 240.465 20.6523ZM253.043 16.1602C252.861 15.9648 252.555 15.8151 252.125 15.7109C251.695 15.5938 251.246 15.5352 250.777 15.5352C250.4 15.5352 250.016 15.5677 249.625 15.6328C249.247 15.6979 249.02 15.7695 248.941 15.8477C248.499 16.7201 248.219 17.7096 248.102 18.8164L253.316 18.3086L253.043 16.1602ZM264.605 25.1055C265.751 25.5612 266.669 25.9128 267.359 26.1602C268.049 26.4076 268.805 26.6224 269.625 26.8047C270.458 26.987 271.285 27.0781 272.105 27.0781C272.47 27.0781 272.73 27.0456 272.887 26.9805C272.926 26.9284 272.958 26.8503 272.984 26.7461C273.023 26.6289 273.043 26.5117 273.043 26.3945C273.043 26.1341 272.893 25.9193 272.594 25.75C272.125 25.4896 271.292 25.0794 270.094 24.5195C268.453 23.7383 267.151 23.0417 266.188 22.4297C265.237 21.8177 264.43 21.0039 263.766 19.9883C263.115 18.9727 262.789 17.6966 262.789 16.1602C262.789 13.9596 263.447 12.1953 264.762 10.8672C266.077 9.52604 268.16 8.85547 271.012 8.85547C274.41 8.85547 277.053 9.29818 278.941 10.1836C279.033 10.5612 279.078 11.0365 279.078 11.6094C279.078 12.7031 278.909 13.8229 278.57 14.9688C278.232 16.1016 277.789 16.9414 277.242 17.4883C276.5 17.2409 275.452 16.8438 274.098 16.2969C273.108 15.9062 272.32 15.6068 271.734 15.3984C271.161 15.1771 270.634 15.0208 270.152 14.9297C269.892 14.9948 269.684 15.151 269.527 15.3984C269.371 15.6328 269.293 15.9128 269.293 16.2383C269.293 16.5247 269.378 16.7656 269.547 16.9609C269.716 17.1562 269.905 17.3125 270.113 17.4297C270.335 17.5339 270.647 17.6771 271.051 17.8594C271.259 17.9505 271.454 18.0352 271.637 18.1133C271.819 18.1784 271.988 18.2435 272.145 18.3086C273.16 18.7383 273.961 19.0898 274.547 19.3633C275.133 19.6367 275.699 19.9622 276.246 20.3398C277.249 21.0299 278.036 21.8177 278.609 22.7031C279.182 23.5885 279.469 24.5586 279.469 25.6133C279.469 27.0716 279.052 28.3346 278.219 29.4023C277.398 30.457 276.344 31.2253 275.055 31.707C274.378 31.9544 273.635 32.1302 272.828 32.2344C272.034 32.3516 271.103 32.4102 270.035 32.4102C268.772 32.4102 267.47 32.1693 266.129 31.6875C264.801 31.1927 263.785 30.3724 263.082 29.2266C263.095 28.4323 263.199 27.7422 263.395 27.1562C263.603 26.5573 264.007 25.8737 264.605 25.1055Z" fill="white"/>
</svg>
