<svg width="37" height="24" viewBox="0 0 37 24" fill="none" xmlns="http://www.w3.org/2000/svg">
<path d="M31.45 0H5.55C4.07805 0 2.66638 0.474106 1.62556 1.31802C0.584731 2.16193 0 3.30653 0 4.5V19.5C0 20.6935 0.584731 21.8381 1.62556 22.682C2.66638 23.5259 4.07805 24 5.55 24H31.45C32.922 24 34.3336 23.5259 35.3744 22.682C36.4153 21.8381 37 20.6935 37 19.5V4.5C37 3.30653 36.4153 2.16193 35.3744 1.31802C34.3336 0.474106 32.922 0 31.45 0ZM30.2105 3L18.5 10.125L6.7895 3H30.2105ZM31.45 21H5.55C5.05935 21 4.5888 20.842 4.24185 20.5607C3.89491 20.2794 3.7 19.8978 3.7 19.5V4.875L17.39 13.2C17.7102 13.3947 18.0997 13.5 18.5 13.5C18.9003 13.5 19.2898 13.3947 19.61 13.2L33.3 4.875V19.5C33.3 19.8978 33.1051 20.2794 32.7581 20.5607C32.4112 20.842 31.9407 21 31.45 21Z" fill="black"/>
</svg>
