<svg width="30" height="30" viewBox="0 0 30 30" fill="none" xmlns="http://www.w3.org/2000/svg">
<g clip-path="url(#clip0_484_9)">
<path d="M29.9842 15.2806C29.9842 14.0515 29.8821 13.1546 29.6613 12.2245H15.2988V17.772H23.7292C23.5593 19.1506 22.6415 21.2268 20.6018 22.6219L20.5732 22.8076L25.1144 26.2454L25.429 26.2761C28.3184 23.6683 29.9842 19.8315 29.9842 15.2806Z" fill="#4285F4"/>
<path d="M15.2984 29.8969C19.4286 29.8969 22.8959 28.5681 25.4286 26.2761L20.6014 22.6219C19.3097 23.5022 17.5759 24.1167 15.2984 24.1167C11.2531 24.1167 7.81979 21.5091 6.59589 17.9049L6.4165 17.9198L1.69456 21.4908L1.63281 21.6586C4.14833 26.5417 9.31542 29.8969 15.2984 29.8969Z" fill="#34A853"/>
<path d="M6.5967 17.905C6.27377 16.9749 6.08687 15.9782 6.08687 14.9485C6.08687 13.9187 6.27377 12.9221 6.57971 11.992L6.57116 11.7939L1.79005 8.16553L1.63362 8.23824C0.596853 10.2646 0.00195312 12.5401 0.00195312 14.9485C0.00195312 17.3569 0.596853 19.6323 1.63362 21.6587L6.5967 17.905Z" fill="#FBBC05"/>
<path d="M15.2984 5.78004C18.1708 5.78004 20.1084 6.99252 21.2133 8.00576L25.5305 3.8866C22.8791 1.47824 19.4286 0 15.2984 0C9.31542 0 4.14833 3.35508 1.63281 8.23821L6.5789 11.992C7.81979 8.38775 11.2531 5.78004 15.2984 5.78004Z" fill="#EB4335"/>
</g>
<defs>
<clipPath id="clip0_484_9">
<rect width="30" height="30" fill="white"/>
</clipPath>
</defs>
</svg>
