<svg width="35" height="37" viewBox="0 0 35 37" fill="none" xmlns="http://www.w3.org/2000/svg">
<g clip-path="url(#clip0_9_11)">
<path d="M34.9806 18.8454C34.9806 17.3295 34.8615 16.2233 34.6038 15.0762H17.8477V21.9181H27.6831C27.4849 23.6184 26.4141 26.179 24.0345 27.8996L24.0011 28.1287L29.2991 32.3686L29.6662 32.4064C33.0372 29.1903 34.9806 24.4582 34.9806 18.8454Z" fill="#4285F4"/>
<path d="M17.8494 36.8721C22.668 36.8721 26.7132 35.2333 29.668 32.4064L24.0363 27.8996C22.5292 28.9854 20.5066 29.7433 17.8494 29.7433C13.13 29.7433 9.12439 26.5273 7.69651 22.082L7.48722 22.1004L1.97829 26.5047L1.90625 26.7116C4.84103 32.7341 10.8693 36.8721 17.8494 36.8721Z" fill="#34A853"/>
<path d="M7.69387 22.0823C7.31712 20.9352 7.09907 19.706 7.09907 18.436C7.09907 17.1658 7.31712 15.9368 7.67405 14.7896L7.66407 14.5453L2.08611 10.0703L1.90361 10.16C0.69405 12.6592 0 15.4657 0 18.436C0 21.4063 0.69405 24.2126 1.90361 26.7118L7.69387 22.0823Z" fill="#FBBC05"/>
<path d="M17.8494 7.12871C21.2006 7.12871 23.4612 8.62411 24.7501 9.87377L29.7869 4.79348C26.6935 1.82317 22.668 0 17.8494 0C10.8693 0 4.84103 4.13793 1.90625 10.1605L7.67669 14.7901C9.12439 10.3449 13.13 7.12871 17.8494 7.12871Z" fill="#EB4335"/>
</g>
<defs>
<clipPath id="clip0_9_11">
<rect width="35" height="37" fill="white"/>
</clipPath>
</defs>
</svg>
