<svg width="24" height="25" viewBox="0 0 24 25" fill="none" xmlns="http://www.w3.org/2000/svg">
<path d="M7 8.89355H17M7 12.8936H11M12 20.8936L8 16.8936H5C4.46957 16.8936 3.96086 16.6828 3.58579 16.3078C3.21071 15.9327 3 15.424 3 14.8936V6.89355C3 6.36312 3.21071 5.85441 3.58579 5.47934C3.96086 5.10427 4.46957 4.89355 5 4.89355H19C19.5304 4.89355 20.0391 5.10427 20.4142 5.47934C20.7893 5.85441 21 6.36312 21 6.89355V14.8936C21 15.424 20.7893 15.9327 20.4142 16.3078C20.0391 16.6828 19.5304 16.8936 19 16.8936H16L12 20.8936Z" stroke="black" stroke-width="2" stroke-linecap="round" stroke-linejoin="round"/>
</svg>
